<svg xmlns="http://www.w3.org/2000/svg" viewBox="0 0 64 80" aria-hidden="true">
  <defs>
    <clipPath id="cm-shape">
      <path d="M5 77L8 75L24 77L42 77L60 76L61 59L57 45L54 30L50 20L50 11L48 1L41 1L36 8L25 13L14 24L2 50L4 64L4 71Z"/>
    </clipPath>
    <filter id="shadow" x="-20%" y="-20%" width="140%" height="140%">
      <feDropShadow dx="0" dy="3" stdDeviation="2.5" flood-color="#000000" flood-opacity="0.18"/>
    </filter>
  </defs>

  <g filter="url(#shadow)">
    <g clip-path="url(#cm-shape)">
      <rect x="0" y="0" width="21.34" height="80" fill="#009A44"/>
      <rect x="21.34" y="0" width="21.32" height="80" fill="#CE1126"/>
      <rect x="42.66" y="0" width="21.34" height="80" fill="#FCD116"/>
    </g>

    <path
      d="M5 77L8 75L24 77L42 77L60 76L61 59L57 45L54 30L50 20L50 11L48 1L41 1L36 8L25 13L14 24L2 50L4 64L4 71Z"
      fill="none"
      stroke="#0b2a17"
      stroke-width="1.5"
      stroke-linejoin="round"
    />

    <path
      d="M32 31.5l2.5 5.3 5.8.7-4.2 4 1 5.8-5.1-2.8-5.1 2.8 1-5.8-4.2-4 5.8-.7z"
      fill="#FCD116"
      stroke="#a57a00"
      stroke-width="0.7"
      stroke-linejoin="round"
    />
  </g>
</svg>
